<?xml version="1.0" encoding="UTF-8"?><svg id="b" xmlns="http://www.w3.org/2000/svg" viewBox="0 0 303.14 77.8"><defs><style>.d{fill:#fff;}.e{isolation:isolate;}.f{fill:#ffcb20;}</style></defs><g id="c"><g><g><path class="f" d="m47.26,13.94c-1.8,1.23-2.67,2.88-2.67,4.94s.82,3.45,2.42,5.04,4.47,3.55,8.54,5.76l5.35,3.03c6.99,3.96,12.03,8.12,15.17,12.55v-25.15c-8.84-5.35-16.09-8.02-21.75-8.02s-5.25.62-7.04,1.85Z"/><path class="f" d="m28.44,71.01v-16.2c4.22,2.98,8.59,5.4,13.01,7.2,4.42,1.85,8.18,2.78,11.16,2.78s5.81-.77,8.07-2.31c2.26-1.54,3.39-3.39,3.39-5.55s-.72-4.01-2.21-5.5c-1.44-1.44-4.63-3.55-9.46-6.32-9.67-5.4-16.04-9.98-19.03-13.83-2.98-3.81-4.47-7.97-4.47-12.5s2.26-10.59,6.79-14.3c2.57-2.11,5.55-3.6,8.95-4.47H0v77.6h50.03c-3.03-.21-5.86-.62-8.38-1.34-3.5-.98-7.97-2.73-13.27-5.35l.05.1Z"/><path class="f" d="m76.05,68.24c-.98,1.29-2.11,2.47-3.5,3.55-4.22,3.45-9.41,5.4-15.68,5.86h19.18v-9.41h0Z"/><path class="f" d="m76.05.05h-13.58c4.47.98,9,2.73,13.58,5.14V.05Z"/><path class="d" d="m53.79,77.75c1.03,0,2.06,0,3.09-.1h-6.74c1.18.05,2.42.1,3.65.1Z"/><path class="d" d="m76.16,20.16V5.3s-.1,0-.1-.05v14.86s.1,0,.1.05Z"/><path class="d" d="m76.05,68.24v-22.99c-3.14-4.42-8.18-8.59-15.17-12.55l-5.35-3.03c-4.06-2.26-6.94-4.16-8.54-5.76-1.59-1.59-2.42-3.29-2.42-5.04s.87-3.7,2.67-4.94c1.8-1.23,4.11-1.85,7.04-1.85,5.66,0,12.91,2.67,21.75,8.02V5.24c-4.58-2.47-9.1-4.16-13.58-5.14h-17.74c-3.39.93-6.38,2.42-8.95,4.47-4.53,3.7-6.79,8.43-6.79,14.3s1.49,8.69,4.47,12.5c2.98,3.81,9.36,8.43,19.03,13.83,4.83,2.78,7.97,4.83,9.46,6.32,1.44,1.44,2.21,3.29,2.21,5.5s-1.13,4.01-3.39,5.55-4.94,2.31-8.07,2.31-6.74-.93-11.16-2.78c-4.42-1.85-8.74-4.27-13.01-7.2v16.2c5.35,2.57,9.77,4.37,13.27,5.35,2.52.67,5.35,1.13,8.38,1.34h6.74c6.27-.46,11.52-2.42,15.68-5.86,1.34-1.08,2.52-2.31,3.5-3.55l-.05-.15Z"/></g><g class="e"><g class="e"><path d="m93.18,14.29h9.35v2.23h-6.84v4.9h6.84v2.23h-6.84v8.17h-2.51V14.29Z"/><path d="m112.16,24.89v4.91c0,.39.13.59.4.59s.71-.21,1.29-.62v1.39c-.52.33-.93.56-1.25.68-.31.12-.64.18-.99.18-.98,0-1.56-.38-1.73-1.16-.97.75-2,1.13-3.1,1.13-.8,0-1.47-.27-2.01-.8-.54-.53-.8-1.2-.8-2,0-.73.26-1.38.79-1.95.52-.57,1.27-1.03,2.23-1.36l2.93-1v-.62c0-1.39-.7-2.08-2.08-2.08-1.25,0-2.46.64-3.64,1.93v-2.5c.89-1.05,2.16-1.57,3.83-1.57,1.25,0,2.25.33,3,.98.25.21.48.49.68.83.2.35.33.7.38,1.04.05.35.08,1.01.08,1.98Zm-2.25,4.66v-3.43l-1.53.59c-.78.31-1.33.62-1.65.94-.32.31-.48.71-.48,1.17s.15.87.46,1.17c.31.3.7.45,1.19.45.73,0,1.4-.3,2.02-.89Z"/><path d="m124.54,29.13v2.26c-1.15.43-2.27.64-3.37.64-1.81,0-3.25-.54-4.32-1.61-1.08-1.07-1.61-2.51-1.61-4.31s.52-3.28,1.57-4.39c1.05-1.11,2.42-1.67,4.13-1.67.59,0,1.13.06,1.6.17s1.06.32,1.75.63v2.44c-1.15-.74-2.23-1.1-3.21-1.1s-1.88.36-2.54,1.09-.99,1.65-.99,2.77c0,1.18.36,2.12,1.07,2.81.72.7,1.68,1.04,2.89,1.04.88,0,1.89-.25,3.03-.77Z"/><path d="m134.5,31.83v-1.48c-.49.53-1.04.94-1.66,1.24-.62.29-1.25.44-1.86.44-.73,0-1.4-.18-2.01-.55-.62-.36-1.08-.86-1.39-1.48-.31-.62-.47-1.66-.47-3.11v-6.62h2.29v6.58c0,1.21.17,2.06.52,2.54.35.48.96.72,1.83.72,1.09,0,2.01-.53,2.77-1.59v-8.25h2.28v11.55h-2.28Z"/><path d="m140.05,14.29h2.28v17.54h-2.28V14.29Z"/><path d="m144.01,22.11l4.29-4.22v2.39h3.65v2.06h-3.65v5.65c0,1.32.55,1.98,1.64,1.98.82,0,1.69-.27,2.6-.82v2.13c-.88.49-1.84.74-2.88.74s-1.92-.31-2.61-.92c-.22-.18-.4-.39-.54-.62s-.26-.53-.36-.9c-.1-.37-.14-1.08-.14-2.13v-5.12h-2.01v-.23Z"/><path d="m161.45,24.89v4.91c0,.39.13.59.4.59s.71-.21,1.29-.62v1.39c-.52.33-.93.56-1.25.68-.31.12-.64.18-.99.18-.98,0-1.56-.38-1.73-1.16-.97.75-2,1.13-3.1,1.13-.8,0-1.47-.27-2.01-.8-.54-.53-.8-1.2-.8-2,0-.73.26-1.38.79-1.95.52-.57,1.27-1.03,2.23-1.36l2.93-1v-.62c0-1.39-.7-2.08-2.08-2.08-1.25,0-2.46.64-3.64,1.93v-2.5c.89-1.05,2.16-1.57,3.83-1.57,1.25,0,2.25.33,3,.98.25.21.48.49.68.83.2.35.33.7.38,1.04.05.35.08,1.01.08,1.98Zm-2.25,4.66v-3.43l-1.53.59c-.78.31-1.33.62-1.65.94-.32.31-.48.71-.48,1.17s.15.87.46,1.17c.31.3.7.45,1.19.45.73,0,1.4-.3,2.02-.89Z"/><path d="m172.87,14.29h2.3v17.54h-4.88c-1.71,0-3.07-.54-4.09-1.62-1.02-1.08-1.53-2.53-1.53-4.34,0-1.7.53-3.1,1.6-4.19s2.43-1.64,4.09-1.64c.77,0,1.61.16,2.51.49v-6.23Zm0,15.58v-7.32c-.71-.36-1.43-.54-2.16-.54-1.14,0-2.04.37-2.72,1.12s-1.01,1.75-1.01,3.01c0,1.19.29,2.11.88,2.75.35.38.72.64,1.12.78s1.1.2,2.12.2h1.77Z"/><path d="m193.12,14.29h2.3v17.54h-4.88c-1.71,0-3.07-.54-4.09-1.62-1.02-1.08-1.53-2.53-1.53-4.34,0-1.7.53-3.1,1.6-4.19s2.43-1.64,4.09-1.64c.77,0,1.61.16,2.51.49v-6.23Zm0,15.58v-7.32c-.71-.36-1.43-.54-2.16-.54-1.14,0-2.04.37-2.72,1.12s-1.01,1.75-1.01,3.01c0,1.19.29,2.11.88,2.75.35.38.72.64,1.12.78s1.1.2,2.12.2h1.77Z"/><path d="m208.36,26.26h-8.12c.06,1.1.43,1.98,1.11,2.64.68.65,1.56.98,2.64.98,1.51,0,2.9-.47,4.17-1.41v2.23c-.7.47-1.4.8-2.09,1-.69.2-1.5.3-2.43.3-1.27,0-2.3-.26-3.09-.79-.79-.53-1.42-1.24-1.89-2.13s-.71-1.92-.71-3.09c0-1.76.5-3.19,1.49-4.29,1-1.1,2.29-1.65,3.88-1.65s2.75.54,3.67,1.61,1.37,2.51,1.37,4.31v.29Zm-8.07-1.37h5.81c-.06-.91-.33-1.62-.82-2.11-.49-.49-1.14-.74-1.96-.74s-1.49.25-2.01.74c-.52.49-.86,1.2-1.02,2.11Z"/><path d="m233.41,27.76v2.76c-1.84,1-3.97,1.51-6.38,1.51-1.96,0-3.62-.39-4.98-1.18-1.37-.79-2.44-1.87-3.24-3.25-.8-1.38-1.19-2.88-1.19-4.48,0-2.55.91-4.7,2.73-6.44,1.82-1.74,4.07-2.61,6.74-2.61,1.84,0,3.89.48,6.14,1.44v2.7c-2.05-1.17-4.05-1.76-6.01-1.76s-3.68.63-5,1.9c-1.33,1.27-1.99,2.86-1.99,4.76s.65,3.51,1.96,4.75c1.31,1.24,2.98,1.86,5.01,1.86s4.2-.65,6.23-1.96Z"/><path d="m237.36,15.42c.38,0,.7.13.97.39.27.26.4.58.4.95s-.13.69-.4.95-.59.4-.97.4c-.35,0-.66-.14-.93-.41-.27-.27-.4-.59-.4-.95s.13-.66.4-.93c.27-.27.58-.41.93-.41Zm-1.13,4.86h2.28v11.55h-2.28v-11.55Z"/><path d="m251.66,26.26h-8.12c.06,1.1.43,1.98,1.11,2.64.68.65,1.56.98,2.64.98,1.51,0,2.9-.47,4.17-1.41v2.23c-.7.47-1.4.8-2.09,1-.69.2-1.5.3-2.43.3-1.27,0-2.3-.26-3.09-.79-.79-.53-1.42-1.24-1.89-2.13s-.71-1.92-.71-3.09c0-1.76.5-3.19,1.49-4.29,1-1.1,2.29-1.65,3.88-1.65s2.75.54,3.67,1.61,1.37,2.51,1.37,4.31v.29Zm-8.07-1.37h5.81c-.06-.91-.33-1.62-.82-2.11-.49-.49-1.14-.74-1.96-.74s-1.49.25-2.01.74c-.52.49-.86,1.2-1.02,2.11Z"/><path d="m256.42,20.28v1.47c1.02-1.13,2.18-1.69,3.48-1.69.72,0,1.39.19,2.01.56.62.37,1.09.88,1.41,1.53s.48,1.68.48,3.08v6.6h-2.29v-6.58c0-1.18-.18-2.02-.54-2.53-.36-.51-.96-.76-1.81-.76-1.08,0-2,.54-2.75,1.62v8.25h-2.33v-11.55h2.33Z"/><path d="m275.65,29.13v2.26c-1.15.43-2.27.64-3.37.64-1.81,0-3.25-.54-4.32-1.61-1.08-1.07-1.61-2.51-1.61-4.31s.52-3.28,1.57-4.39c1.05-1.11,2.42-1.67,4.13-1.67.59,0,1.13.06,1.6.17s1.06.32,1.75.63v2.44c-1.15-.74-2.23-1.1-3.21-1.1s-1.88.36-2.54,1.09-.99,1.65-.99,2.77c0,1.18.36,2.12,1.07,2.81.72.7,1.68,1.04,2.89,1.04.88,0,1.89-.25,3.03-.77Z"/><path d="m279.43,15.42c.38,0,.7.13.97.39.27.26.4.58.4.95s-.13.69-.4.95-.59.4-.97.4c-.35,0-.66-.14-.93-.41-.27-.27-.4-.59-.4-.95s.13-.66.4-.93c.27-.27.58-.41.93-.41Zm-1.13,4.86h2.28v11.55h-2.28v-11.55Z"/><path d="m291.15,24.89v4.91c0,.39.13.59.4.59s.71-.21,1.29-.62v1.39c-.52.33-.93.56-1.25.68-.31.12-.64.18-.99.18-.98,0-1.56-.38-1.73-1.16-.97.75-2,1.13-3.1,1.13-.8,0-1.47-.27-2.01-.8-.54-.53-.8-1.2-.8-2,0-.73.26-1.38.79-1.95.52-.57,1.27-1.03,2.23-1.36l2.93-1v-.62c0-1.39-.7-2.08-2.08-2.08-1.25,0-2.46.64-3.64,1.93v-2.5c.89-1.05,2.16-1.57,3.83-1.57,1.25,0,2.25.33,3,.98.25.21.48.49.68.83.2.35.33.7.38,1.04.05.35.08,1.01.08,1.98Zm-2.25,4.66v-3.43l-1.53.59c-.78.31-1.33.62-1.65.94-.32.31-.48.71-.48,1.17s.15.87.46,1.17c.31.3.7.45,1.19.45.73,0,1.4-.3,2.02-.89Z"/><path d="m294.3,31v-2.46c.64.45,1.3.82,1.98,1.1.67.28,1.24.42,1.7.42s.89-.12,1.23-.35c.34-.23.51-.51.51-.84s-.11-.61-.33-.83-.7-.54-1.44-.96c-1.47-.82-2.44-1.52-2.89-2.1-.46-.58-.68-1.22-.68-1.9,0-.89.35-1.61,1.04-2.17s1.58-.84,2.67-.84,2.29.32,3.48.95v2.26c-1.36-.82-2.46-1.23-3.33-1.23-.44,0-.8.09-1.07.28-.27.19-.41.44-.41.75,0,.27.12.52.37.77.25.24.68.54,1.3.88l.82.46c1.93,1.09,2.89,2.29,2.89,3.61,0,.95-.37,1.72-1.11,2.33-.74.61-1.69.91-2.86.91-.69,0-1.3-.07-1.83-.22-.54-.15-1.21-.42-2.02-.81Z"/></g><g class="e"><path d="m100.55,45.14h2.3v17.54h-4.88c-1.71,0-3.07-.54-4.09-1.62-1.02-1.08-1.53-2.53-1.53-4.34,0-1.7.53-3.1,1.6-4.19s2.43-1.64,4.09-1.64c.77,0,1.61.16,2.51.49v-6.23Zm0,15.58v-7.32c-.71-.36-1.43-.54-2.16-.54-1.14,0-2.04.37-2.72,1.12s-1.01,1.75-1.01,3.01c0,1.19.29,2.11.88,2.75.35.38.72.64,1.12.78s1.1.2,2.12.2h1.77Z"/><path d="m115.79,57.11h-8.12c.06,1.1.43,1.98,1.11,2.64.68.65,1.56.98,2.64.98,1.51,0,2.9-.47,4.17-1.41v2.23c-.7.47-1.4.8-2.09,1-.69.2-1.5.3-2.43.3-1.27,0-2.3-.26-3.09-.79-.79-.53-1.42-1.24-1.89-2.13s-.71-1.92-.71-3.09c0-1.76.5-3.19,1.49-4.29,1-1.1,2.29-1.65,3.88-1.65s2.75.54,3.67,1.61,1.37,2.51,1.37,4.31v.29Zm-8.07-1.37h5.81c-.06-.91-.33-1.62-.82-2.11-.49-.49-1.14-.74-1.96-.74s-1.49.25-2.01.74c-.52.49-.86,1.2-1.02,2.11Z"/><path d="m125.46,45.14h2.28v17.54h-2.28v-17.54Z"/><path d="m138.3,55.74v4.91c0,.39.13.59.4.59s.71-.21,1.29-.62v1.39c-.52.33-.93.56-1.25.68-.31.12-.64.18-.99.18-.98,0-1.56-.38-1.73-1.16-.97.75-2,1.13-3.1,1.13-.8,0-1.47-.27-2.01-.8-.54-.53-.8-1.2-.8-2,0-.73.26-1.38.79-1.95.52-.57,1.27-1.03,2.23-1.36l2.93-1v-.62c0-1.39-.7-2.08-2.08-2.08-1.25,0-2.46.64-3.64,1.93v-2.5c.89-1.05,2.16-1.57,3.83-1.57,1.25,0,2.25.33,3,.98.25.21.48.49.68.83.2.35.33.7.38,1.04.05.35.08,1.01.08,1.98Zm-2.25,4.66v-3.43l-1.53.59c-.78.31-1.33.62-1.65.94-.32.31-.48.71-.48,1.17s.15.87.46,1.17c.31.3.7.45,1.19.45.73,0,1.4-.3,2.02-.89Z"/><path d="m153.82,55.33l-1.91-1.16c-1.2-.73-2.05-1.45-2.55-2.16-.51-.71-.76-1.52-.76-2.44,0-1.38.48-2.5,1.44-3.36.96-.86,2.2-1.29,3.73-1.29s2.81.41,4.03,1.23v2.85c-1.26-1.22-2.62-1.82-4.08-1.82-.82,0-1.49.19-2.02.57-.53.38-.79.87-.79,1.46,0,.53.19,1.02.58,1.48.39.46,1.01.94,1.87,1.44l1.92,1.13c2.14,1.28,3.21,2.9,3.21,4.88,0,1.41-.47,2.55-1.41,3.43s-2.17,1.32-3.67,1.32c-1.73,0-3.31-.53-4.73-1.6v-3.19c1.36,1.72,2.92,2.58,4.71,2.58.79,0,1.44-.22,1.96-.66.52-.44.78-.99.78-1.65,0-1.07-.77-2.08-2.31-3.04Z"/><path d="m168.19,55.74v4.91c0,.39.13.59.4.59s.71-.21,1.29-.62v1.39c-.52.33-.93.56-1.25.68-.31.12-.64.18-.99.18-.98,0-1.56-.38-1.73-1.16-.97.75-2,1.13-3.1,1.13-.8,0-1.47-.27-2.01-.8-.54-.53-.8-1.2-.8-2,0-.73.26-1.38.79-1.95.52-.57,1.27-1.03,2.23-1.36l2.93-1v-.62c0-1.39-.7-2.08-2.08-2.08-1.25,0-2.46.64-3.64,1.93v-2.5c.89-1.05,2.16-1.57,3.83-1.57,1.25,0,2.25.33,3,.98.25.21.48.49.68.83.2.35.33.7.38,1.04.05.35.08,1.01.08,1.98Zm-2.25,4.66v-3.43l-1.53.59c-.78.31-1.33.62-1.65.94-.32.31-.48.71-.48,1.17s.15.87.46,1.17c.31.3.7.45,1.19.45.73,0,1.4-.3,2.02-.89Z"/><path d="m171.96,45.14h2.28v17.54h-2.28v-17.54Z"/><path d="m184.9,62.68v-1.48c-.49.53-1.04.94-1.66,1.24-.62.29-1.25.44-1.86.44-.73,0-1.4-.18-2.01-.55-.62-.36-1.08-.86-1.39-1.48-.31-.62-.47-1.66-.47-3.11v-6.62h2.29v6.58c0,1.21.17,2.06.52,2.54.35.48.96.72,1.83.72,1.09,0,2.01-.53,2.77-1.59v-8.25h2.28v11.55h-2.28Z"/><path d="m198.11,45.14h2.3v17.54h-4.88c-1.71,0-3.07-.54-4.09-1.62-1.02-1.08-1.53-2.53-1.53-4.34,0-1.7.53-3.1,1.6-4.19s2.43-1.64,4.09-1.64c.77,0,1.61.16,2.51.49v-6.23Zm0,15.58v-7.32c-.71-.36-1.43-.54-2.16-.54-1.14,0-2.04.37-2.72,1.12s-1.01,1.75-1.01,3.01c0,1.19.29,2.11.88,2.75.35.38.72.64,1.12.78s1.1.2,2.12.2h1.77Z"/></g></g></g></g></svg>