<?xml version="1.0" encoding="UTF-8" ?>
<!DOCTYPE svg PUBLIC "-//W3C//DTD SVG 1.1//EN" "http://www.w3.org/Graphics/SVG/1.1/DTD/svg11.dtd">
<svg width="500pt" height="125pt" viewBox="0 0 500 125" version="1.1" xmlns="http://www.w3.org/2000/svg">
<g id="#040404ff">
<path fill="#040404" opacity="1.00" d=" M 386.64 0.00 L 400.28 0.00 C 400.80 12.58 400.41 25.17 400.50 37.75 C 411.00 29.49 426.94 29.53 437.52 37.61 C 451.14 48.07 452.63 70.03 441.76 82.98 C 431.93 94.95 412.48 96.60 400.55 86.82 C 400.49 88.97 400.42 91.12 400.34 93.27 C 395.72 93.38 391.11 93.38 386.50 93.30 C 386.02 87.54 386.20 81.75 386.19 75.98 C 386.19 55.31 386.20 34.64 386.19 13.97 C 386.20 9.32 385.95 4.63 386.64 0.00 M 412.43 45.53 C 398.61 48.76 396.46 69.86 407.82 77.22 C 414.92 81.44 425.47 80.46 430.57 73.53 C 434.80 67.27 434.98 58.57 431.15 52.07 C 427.37 45.96 419.15 43.55 412.43 45.53 Z" />
<path fill="#040404" opacity="1.00" d=" M 300.20 2.63 C 304.79 1.63 309.58 2.28 314.24 2.41 C 314.29 32.76 314.28 63.10 314.25 93.44 C 309.62 93.96 304.95 93.84 300.31 93.64 C 299.56 88.78 299.86 83.86 299.83 78.97 C 299.81 54.97 299.87 30.98 299.80 6.99 C 299.79 5.52 299.93 4.07 300.20 2.63 Z" />
<path fill="#040404" opacity="1.00" d=" M 94.40 38.01 C 103.10 31.14 115.48 30.16 125.52 34.49 C 134.20 38.35 140.44 46.84 141.98 56.17 C 143.29 64.19 142.35 72.88 137.97 79.87 C 129.35 94.55 107.43 97.82 94.33 87.32 C 94.49 99.40 94.20 111.48 94.49 123.56 C 94.10 123.92 93.32 124.64 92.93 125.00 L 80.42 125.00 C 79.75 102.03 80.36 79.02 80.08 56.04 C 80.22 48.48 79.65 40.92 80.32 33.37 C 84.98 33.22 89.65 33.21 94.31 33.54 C 94.34 35.03 94.37 36.52 94.40 38.01 M 107.43 45.55 C 101.46 46.49 96.37 51.12 94.98 57.01 C 93.78 62.75 94.05 69.37 97.88 74.12 C 102.84 80.65 112.81 81.54 119.73 77.85 C 128.11 72.97 129.65 60.94 125.17 52.93 C 121.83 46.78 114.04 44.21 107.43 45.55 Z" />
<path fill="#040404" opacity="1.00" d=" M 148.68 32.48 C 153.29 31.69 157.99 32.00 162.64 32.07 C 163.03 52.46 162.98 72.90 162.67 93.30 C 158.42 93.29 154.16 93.58 149.92 93.21 C 148.33 92.38 148.76 90.52 148.66 89.05 C 148.71 70.19 148.68 51.34 148.68 32.48 Z" />
<path fill="#040404" opacity="1.00" d=" M 171.45 33.67 C 173.50 31.06 177.09 32.23 179.95 31.96 C 183.04 32.21 186.48 31.39 189.38 32.55 C 193.98 38.42 197.92 44.81 202.29 50.87 C 206.92 44.89 210.66 38.27 215.33 32.34 C 220.73 31.54 226.26 32.09 231.70 32.16 C 231.45 33.65 231.28 35.21 230.23 36.39 C 224.27 44.59 217.92 52.50 212.19 60.87 C 217.54 67.52 222.63 74.38 227.89 81.11 C 230.69 84.81 233.84 88.28 235.98 92.43 C 230.20 94.22 224.03 93.11 218.07 93.22 C 212.83 85.58 207.36 78.08 201.94 70.56 C 196.21 78.03 191.11 85.96 185.33 93.38 C 180.01 93.33 174.69 93.36 169.37 93.34 C 169.22 91.92 169.16 90.39 170.24 89.27 C 176.92 80.61 183.56 71.92 190.31 63.31 C 190.99 62.20 192.54 60.87 191.35 59.56 C 184.83 50.85 177.99 42.37 171.45 33.67 Z" />
<path fill="#040404" opacity="1.00" d=" M 243.95 39.95 C 250.78 33.28 260.81 30.98 270.10 32.21 C 278.84 32.91 286.79 38.64 290.75 46.39 C 293.85 52.77 294.93 60.09 294.35 67.13 C 294.08 67.41 293.52 67.96 293.24 68.23 C 278.56 68.63 263.85 68.10 249.16 68.49 C 251.78 78.18 263.62 83.41 272.67 79.52 C 276.42 78.06 278.78 74.62 281.93 72.30 C 285.32 74.42 288.60 76.78 291.53 79.50 C 292.35 80.95 290.95 82.05 290.12 83.07 C 285.23 88.57 278.34 92.32 270.98 93.07 C 261.75 94.39 251.67 92.66 244.49 86.37 C 231.21 74.85 230.98 51.80 243.95 39.95 M 255.79 46.73 C 252.37 48.85 250.67 52.67 249.24 56.27 C 259.27 56.40 269.29 56.32 279.32 56.31 C 278.60 53.19 277.92 49.77 275.42 47.53 C 270.15 42.66 261.50 42.54 255.79 46.73 Z" />
<path fill="#040404" opacity="1.00" d=" M 325.08 41.91 C 332.34 34.05 343.69 31.27 354.07 32.30 C 361.54 32.73 369.30 36.40 372.85 43.26 C 375.47 47.73 374.69 53.10 374.82 58.04 C 374.69 69.54 374.80 81.05 375.42 92.53 C 371.44 94.31 366.66 92.92 362.37 93.40 C 361.88 91.48 361.62 89.52 361.52 87.55 C 355.33 93.39 346.16 94.51 338.08 93.10 C 332.71 92.21 327.67 89.01 324.88 84.28 C 321.98 78.84 322.01 71.98 324.71 66.47 C 327.82 60.81 333.92 57.61 339.99 56.11 C 346.99 54.02 354.36 54.47 361.57 54.36 C 361.16 50.32 359.11 46.38 355.14 44.88 C 347.52 42.37 339.55 45.63 333.85 50.76 C 330.68 48.06 327.80 45.06 325.08 41.91 M 340.18 69.04 C 335.86 71.32 335.86 78.70 340.58 80.50 C 346.35 82.86 353.92 82.10 358.16 77.16 C 361.03 74.07 361.08 69.61 361.47 65.66 C 354.31 65.67 346.64 65.48 340.18 69.04 Z" />
<path fill="#040404" opacity="1.00" d=" M 459.84 37.80 C 466.30 31.97 475.80 30.87 484.07 32.46 C 490.36 33.42 495.90 37.34 498.94 42.92 C 495.48 45.63 492.25 48.84 488.16 50.60 C 485.26 48.61 482.71 45.72 479.04 45.24 C 475.84 44.78 471.97 45.22 469.78 47.85 C 468.21 50.42 470.79 53.17 473.15 54.00 C 479.77 56.53 487.36 56.55 493.34 60.71 C 497.06 63.12 499.25 67.30 500.00 71.59 L 500.00 76.40 C 499.01 85.43 490.59 91.81 481.98 92.84 C 473.11 94.06 462.91 93.43 456.00 87.05 C 454.39 85.41 452.19 83.70 452.06 81.23 C 454.79 77.95 458.50 75.68 461.89 73.16 C 465.24 75.73 468.43 79.17 472.85 79.68 C 476.46 80.09 480.55 79.92 483.56 77.62 C 485.44 76.22 485.45 72.86 483.36 71.63 C 479.54 68.84 474.63 68.60 470.22 67.38 C 465.37 66.07 460.22 64.18 457.15 59.97 C 452.25 53.31 453.69 43.18 459.84 37.80 Z" />
</g>
<g id="#703cffff">
<path fill="#703cff" opacity="1.00" d=" M 0.00 33.44 C 20.92 33.44 41.84 33.44 62.77 33.44 C 62.77 54.13 62.78 74.82 62.77 95.52 C 41.84 95.51 20.92 95.52 0.00 95.51 L 0.00 33.44 M 16.01 48.38 C 15.48 57.22 15.98 66.10 15.77 74.96 C 15.82 76.51 15.37 79.57 17.85 79.20 C 27.55 79.28 37.24 79.17 46.94 79.22 C 47.13 68.89 46.99 58.56 47.02 48.22 C 36.69 48.34 26.34 47.98 16.01 48.38 Z" />
</g>
<g id="#ffffffff">
</g>
</svg>
